<?xml version="1.0" encoding="UTF-8" standalone="no"?>
<!-- Created with Inkscape (http://www.inkscape.org/) -->

<svg
   xmlns:dc="http://purl.org/dc/elements/1.1/"
   xmlns:cc="http://creativecommons.org/ns#"
   xmlns:rdf="http://www.w3.org/1999/02/22-rdf-syntax-ns#"
   xmlns:svg="http://www.w3.org/2000/svg"
   xmlns="http://www.w3.org/2000/svg"
   xmlns:sodipodi="http://sodipodi.sourceforge.net/DTD/sodipodi-0.dtd"
   xmlns:inkscape="http://www.inkscape.org/namespaces/inkscape"
   width="300.0166"
   height="299.98535"
   id="svg2"
   version="1.1"
   inkscape:version="0.48.4 r9939"
   sodipodi:docname="one.svg">
  <defs
     id="defs4" />
  <sodipodi:namedview
     id="base"
     pagecolor="#ffffff"
     bordercolor="#666666"
     borderopacity="1.0"
     inkscape:pageopacity="0.0"
     inkscape:pageshadow="2"
     inkscape:zoom="1.4"
     inkscape:cx="-6.7774113"
     inkscape:cy="19.989871"
     inkscape:document-units="px"
     inkscape:current-layer="layer1"
     showgrid="false"
     inkscape:window-width="1855"
     inkscape:window-height="1056"
     inkscape:window-x="65"
     inkscape:window-y="24"
     inkscape:window-maximized="1"
     fit-margin-top="0"
     fit-margin-left="0"
     fit-margin-right="0"
     fit-margin-bottom="0" />
  <metadata
     id="metadata7">
    <rdf:RDF>
      <cc:Work
         rdf:about="">
        <dc:format>image/svg+xml</dc:format>
        <dc:type
           rdf:resource="http://purl.org/dc/dcmitype/StillImage" />
        <dc:title></dc:title>
      </cc:Work>
    </rdf:RDF>
  </metadata>
  <g
     inkscape:label="Ebene 1"
     inkscape:groupmode="layer"
     id="layer1"
     transform="translate(-199.9917,-252.3667)">
    <path
       style="fill:#ffcc00;fill-opacity:1;stroke:#000000;stroke-width:0.89925534;stroke-miterlimit:4;stroke-opacity:1;stroke-dasharray:none"
       d="m 350.01363,277.81181 c -68.78622,0 -124.564,55.7608 -124.564,124.55038 0,68.78957 55.77778,124.55036 124.564,124.55036 68.78619,0 124.53674,-55.76079 124.53674,-124.55036 0,-68.78958 -55.75055,-124.55038 -124.53674,-124.55038 z"
       id="path2985-4"
       inkscape:connector-curvature="0" />
    <path
       style="fill:#ffb900;fill-opacity:1;stroke:none"
       d="m 225,462.36218 c 0,0 82.06478,-1.78662 143.57143,-20 76.48045,-22.64744 112.14285,-92.14286 112.14285,-92.14286 l -9.99999,125.71429 -39.28572,37.85714 -99.28571,31.42857 -60.71429,-31.42857 -25.71429,-15"
       id="path3867"
       inkscape:connector-curvature="0"
       sodipodi:nodetypes="cscccccc" />
    <path
       style="fill:#ff6600;fill-opacity:1;stroke:#000000;stroke-width:1.07910633;stroke-miterlimit:4;stroke-opacity:1;stroke-dasharray:none"
       d="m 350.03125,252.90625 c -82.54344,0 -149.5,66.92126 -149.5,149.46875 0,82.54748 66.95656,149.4375 149.5,149.4375 82.54343,0 149.4375,-66.89002 149.4375,-149.4375 0,-82.54749 -66.89407,-149.46875 -149.4375,-149.46875 z M 350,277.8125 c 68.78619,0 124.5625,55.77291 124.5625,124.5625 0,68.78957 -55.77631,124.53125 -124.5625,124.53125 -68.78622,0 -124.5625,-55.74168 -124.5625,-124.53125 0,-68.78959 55.77628,-124.5625 124.5625,-124.5625 z"
       id="path2985"
       inkscape:connector-curvature="0" />
    <g
       id="g3825"
       transform="translate(200.71429,-98.571433)">
      <path
         inkscape:connector-curvature="0"
         id="path3031-6"
         d="m 164.34375,436.71875 c -7.48901,0.97681 -17.03475,-2.55882 -22.4375,4.46875 -9.98531,11.71249 -24.54604,18.74457 -38.90625,24 3.22164,7.83293 6.4266,15.66526 9.71875,23.46875 8.70871,-2.76516 17.246,-6.20481 25.09375,-10.9375 0,31.95833 0,63.91667 0,95.875 9.58333,0 19.16667,0 28.75,0 0,-45.70833 0,-91.41667 0,-137.125 -0.73958,0.0833 -1.47917,0.16667 -2.21875,0.25 z"
         style="font-size:180px;font-style:normal;font-variant:normal;font-weight:normal;font-stretch:normal;line-height:125%;letter-spacing:0px;word-spacing:0px;fill:#ff6600;fill-opacity:1;stroke:#000000;stroke-opacity:1;font-family:Ubuntu;-inkscape-font-specification:Ubuntu" />
      <g
         transform="translate(-202.85714,105.71428)"
         id="text3026"
         style="font-size:144px;font-style:normal;font-variant:normal;font-weight:normal;font-stretch:normal;line-height:125%;letter-spacing:0px;word-spacing:0px;fill:#ffcc00;fill-opacity:1;stroke:#000000;stroke-opacity:1;font-family:Ubuntu;-inkscape-font-specification:Ubuntu">
        <path
           inkscape:connector-curvature="0"
           id="path3031"
           style="font-size:180px;fill:#ffcc00;stroke:#000000;stroke-opacity:1"
           d="m 313.16858,363.36219 c 6.83998,-2.6399 13.49997,-5.9999 19.98,-10.08 6.47996,-4.19989 12.41996,-9.41988 17.82,-15.66 l 11.88,0 0,124.74 -16.74,0 0,-101.52 c -1.44004,1.3201 -3.24004,2.7001 -5.4,4.14 -2.04004,1.44009 -4.32004,2.82009 -6.84,4.14 -2.40003,1.32009 -4.98003,2.58009 -7.74,3.78 -2.64002,1.20009 -5.22002,2.22008 -7.74,3.06 l -5.22,-12.6" />
      </g>
    </g>
  </g>
</svg>
