<?xml version="1.0" encoding="UTF-8" standalone="no"?>
<!-- Created with Inkscape (http://www.inkscape.org/) -->

<svg
   xmlns:dc="http://purl.org/dc/elements/1.1/"
   xmlns:cc="http://creativecommons.org/ns#"
   xmlns:rdf="http://www.w3.org/1999/02/22-rdf-syntax-ns#"
   xmlns:svg="http://www.w3.org/2000/svg"
   xmlns="http://www.w3.org/2000/svg"
   xmlns:sodipodi="http://sodipodi.sourceforge.net/DTD/sodipodi-0.dtd"
   xmlns:inkscape="http://www.inkscape.org/namespaces/inkscape"
   viewBox="0 0 574.65778 561.07172"
   preserveAspectRatio="xMinYMin meet"
   id="svg2"
   version="1.1"
   inkscape:version="0.48.4 r9939"
   sodipodi:docname="sun.svg">
  <defs
     id="defs4" />
  <sodipodi:namedview
     id="base"
     pagecolor="#ffffff"
     bordercolor="#666666"
     borderopacity="1.0"
     inkscape:pageopacity="0.0"
     inkscape:pageshadow="2"
     inkscape:zoom="0.98994949"
     inkscape:cx="288.75744"
     inkscape:cy="203.39299"
     inkscape:document-units="px"
     inkscape:current-layer="g3095"
     showgrid="false"
     inkscape:window-width="1855"
     inkscape:window-height="1056"
     inkscape:window-x="65"
     inkscape:window-y="24"
     inkscape:window-maximized="1"
     fit-margin-top="0"
     fit-margin-left="0"
     fit-margin-right="0"
     fit-margin-bottom="0" />
  <metadata
     id="metadata7">
    <rdf:RDF>
      <cc:Work
         rdf:about="">
        <dc:format>image/svg+xml</dc:format>
        <dc:type
           rdf:resource="http://purl.org/dc/dcmitype/StillImage" />
        <dc:title />
      </cc:Work>
    </rdf:RDF>
  </metadata>
  <g
     inkscape:label="Ebene 1"
     inkscape:groupmode="layer"
     id="layer1"
     transform="translate(-61.242564,-174.68348)">
    <g
       id="g3095">
      
      <g
         transform="matrix(1.1079562,0.28042055,-0.28153399,1.1123555,268.76104,264.82723)">
<path
         d="M 257.14285,346.64789 147.87819,263.2106 109.5318,395.23372 70.178041,263.50738 -38.446079,347.77688 7.1428617,218.07647 -130.26827,222.40427 -17.150053,144.27095 -130.86181,67.003977 6.5783637,70.282007 -39.999995,-59.066378 69.264664,24.370911 107.61105,-107.6522 146.96481,24.074137 255.58893,-60.195364 209.99999,69.505042 347.41112,65.17724 234.29291,143.31057 348.00466,220.57754 210.56449,217.29951 z"
         inkscape:randomized="0"
         inkscape:rounded="0"
         inkscape:flatsided="false"
         sodipodi:arg2="1.2528176"
         sodipodi:arg1="0.93865837"
         sodipodi:r2="125.7224"
         sodipodi:r1="251.44479"
         sodipodi:cy="143.79076"
         sodipodi:cx="108.57143"
         sodipodi:sides="10"
         id="yellowBeams"
         style="fill:#ffdd55;stroke:#000000;stroke-opacity:1"
         sodipodi:type="star" />
</g>
      <g
         transform="translate(237.14286,314.28571)">
      <path
         d="M 257.14285,346.64789 147.87819,263.2106 109.5318,395.23372 70.178041,263.50738 -38.446079,347.77688 7.1428617,218.07647 -130.26827,222.40427 -17.150053,144.27095 -130.86181,67.003977 6.5783637,70.282007 -39.999995,-59.066378 69.264664,24.370911 107.61105,-107.6522 146.96481,24.074137 255.58893,-60.195364 209.99999,69.505042 347.41112,65.17724 234.29291,143.31057 348.00466,220.57754 210.56449,217.29951 z"
         inkscape:randomized="0"
         inkscape:rounded="0"
         inkscape:flatsided="false"
         sodipodi:arg2="1.2528176"
         sodipodi:arg1="0.93865837"
         sodipodi:r2="125.7224"
         sodipodi:r1="251.44479"
         sodipodi:cy="143.79076"
         sodipodi:cx="108.57143"
         sodipodi:sides="10"
         id="orangeBeams"
         style="fill:#ff7f2a;stroke:#000000;stroke-opacity:1"
         sodipodi:type="star"
         inkscape:label="#path3007" />
</g>
      <path
         d="m 508.57143,455.21933 c 0,91.52147 -73.55323,165.71428 -164.28572,165.71428 -90.7325,0 -164.28573,-74.19281 -164.28573,-165.71428 0,-91.52147 73.55323,-165.71428 164.28573,-165.71428 90.73249,0 164.28572,74.19281 164.28572,165.71428 z"
         sodipodi:ry="165.71428"
         sodipodi:rx="164.28572"
         sodipodi:cy="455.21933"
         sodipodi:cx="344.28571"
         id="path2985"
         style="fill:#ffcc00;stroke:#000000;stroke-opacity:1"
         sodipodi:type="arc" />
      <path
         transform="matrix(1.0402662,0,0,0.26563802,119.93695,353.2138)"
         d="m 266.68027,280.2493 c 0,17.29465 -25.10047,31.31473 -56.06346,31.31473 -30.963,0 -56.06347,-14.02008 -56.06347,-31.31473 0,-17.29465 25.10047,-31.31473 56.06347,-31.31473 30.96299,0 56.06346,14.02008 56.06346,31.31473 z"
         sodipodi:ry="31.31473"
         sodipodi:rx="56.063465"
         sodipodi:cy="280.2493"
         sodipodi:cx="210.61681"
         id="path3048-9-96"
         style="fill:#806600;stroke:#000000;stroke-opacity:1"
         sodipodi:type="arc" />
      <path
         transform="matrix(1.0344079,0,0,1.3519238,193.90181,62.925108)"
         d="m 266.68027,280.2493 c 0,17.29465 -25.10047,31.31473 -56.06346,31.31473 -30.963,0 -56.06347,-14.02008 -56.06347,-31.31473 0,-17.29465 25.10047,-31.31473 56.06347,-31.31473 30.96299,0 56.06346,14.02008 56.06346,31.31473 z"
         sodipodi:ry="31.31473"
         sodipodi:rx="56.063465"
         sodipodi:cy="280.2493"
         sodipodi:cx="210.61681"
         id="path3048-9"
         style="fill:#806600;stroke:#000000;stroke-opacity:1"
         sodipodi:type="arc" />
      <path
         transform="matrix(1.0344079,0,0,1.3519238,52.480456,65.955566)"
         d="m 266.68027,280.2493 c 0,17.29465 -25.10047,31.31473 -56.06346,31.31473 -30.963,0 -56.06347,-14.02008 -56.06347,-31.31473 0,-17.29465 25.10047,-31.31473 56.06347,-31.31473 30.96299,0 56.06346,14.02008 56.06346,31.31473 z"
         sodipodi:ry="31.31473"
         sodipodi:rx="56.063465"
         sodipodi:cy="280.2493"
         sodipodi:cx="210.61681"
         id="path3048-9-9"
         style="fill:#806600;stroke:#000000;stroke-opacity:1"
         sodipodi:type="arc" />
    </g>
    <path
       style="fill:#ffffff;stroke:#000000;stroke-opacity:1"
       d="M 186.53125 364.28125 C 192.23042 390.90205 233.84216 411.5625 284.34375 411.5625 C 334.84534 411.5625 376.48833 390.90205 382.1875 364.28125 C 352.59228 370.62508 319.38899 374.1875 284.34375 374.1875 C 249.29851 374.1875 216.12647 370.62508 186.53125 364.28125 z "
       transform="translate(61.242564,174.68348)"
       id="path3103" />
    <path
       style="fill:none;stroke:#000000;stroke-width:1px;stroke-linecap:butt;stroke-linejoin:miter;stroke-opacity:1"
       d="m 185.86807,363.08182 c 0,0 38.49283,33.76235 96.97464,32.32488 58.48181,-1.43747 98.99495,-29.29442 98.99495,-29.29442"
       id="path3108"
       inkscape:connector-curvature="0"
       transform="translate(61.242564,174.68348)"
       sodipodi:nodetypes="czc" />
    <path
       style="fill:none;stroke:#000000;stroke-width:1px;stroke-linecap:butt;stroke-linejoin:miter;stroke-opacity:1"
       d="m 284.86302,375.20365 0,36.36549"
       id="path3110"
       inkscape:connector-curvature="0"
       transform="translate(61.242564,174.68348)" />
    <path
       style="fill:none;stroke:#000000;stroke-width:1px;stroke-linecap:butt;stroke-linejoin:miter;stroke-opacity:1"
       d="m 257.5889,371.16304 0,37.37564"
       id="path3112"
       inkscape:connector-curvature="0"
       transform="translate(61.242564,174.68348)" />
    <path
       style="fill:none;stroke:#000000;stroke-width:1px;stroke-linecap:butt;stroke-linejoin:miter;stroke-opacity:1"
       d="m 231.32493,372.17319 0,30.30458"
       id="path3114"
       inkscape:connector-curvature="0"
       transform="translate(61.242564,174.68348)" />
    <path
       style="fill:none;stroke:#000000;stroke-width:1px;stroke-linecap:butt;stroke-linejoin:miter;stroke-opacity:1"
       d="m 213.14219,369.14273 0,26.26397"
       id="path3116"
       inkscape:connector-curvature="0"
       transform="translate(61.242564,174.68348)" />
    <path
       style="fill:none;stroke:#000000;stroke-width:1px;stroke-linecap:butt;stroke-linejoin:miter;stroke-opacity:1"
       d="m 311.12698,373.18334 -1.01015,35.35534"
       id="path3118"
       inkscape:connector-curvature="0"
       transform="translate(61.242564,174.68348)" />
    <path
       style="fill:none;stroke:#000000;stroke-width:1px;stroke-linecap:butt;stroke-linejoin:miter;stroke-opacity:1"
       d="m 337.39095,372.17319 0,26.26397"
       id="path3120"
       inkscape:connector-curvature="0"
       transform="translate(61.242564,174.68348)" />
    <path
       style="fill:none;stroke:#000000;stroke-width:1px;stroke-linecap:butt;stroke-linejoin:miter;stroke-opacity:1"
       d="m 358.60415,368.13258 0,23.23351"
       id="path3122"
       inkscape:connector-curvature="0"
       transform="translate(61.242564,174.68348)" />
  </g>
</svg>
