<?xml version="1.0" encoding="UTF-8" standalone="no"?>
<!-- Created with Inkscape (http://www.inkscape.org/) -->

<svg
   xmlns:dc="http://purl.org/dc/elements/1.1/"
   xmlns:cc="http://creativecommons.org/ns#"
   xmlns:rdf="http://www.w3.org/1999/02/22-rdf-syntax-ns#"
   xmlns:svg="http://www.w3.org/2000/svg"
   xmlns="http://www.w3.org/2000/svg"
   xmlns:sodipodi="http://sodipodi.sourceforge.net/DTD/sodipodi-0.dtd"
   xmlns:inkscape="http://www.inkscape.org/namespaces/inkscape"
   width="574.65778"
   height="561.07172"
   id="svg2"
   version="1.1"
   inkscape:version="0.48.4 r9939"
   sodipodi:docname="sun.svg">
  <defs
     id="defs4" />
  <sodipodi:namedview
     id="base"
     pagecolor="#ffffff"
     bordercolor="#666666"
     borderopacity="1.0"
     inkscape:pageopacity="0.0"
     inkscape:pageshadow="2"
     inkscape:zoom="0.98994949"
     inkscape:cx="288.75744"
     inkscape:cy="203.39299"
     inkscape:document-units="px"
     inkscape:current-layer="layer1"
     showgrid="false"
     inkscape:window-width="1855"
     inkscape:window-height="1056"
     inkscape:window-x="65"
     inkscape:window-y="24"
     inkscape:window-maximized="1"
     fit-margin-top="0"
     fit-margin-left="0"
     fit-margin-right="0"
     fit-margin-bottom="0" />
  <metadata
     id="metadata7">
    <rdf:RDF>
      <cc:Work
         rdf:about="">
        <dc:format>image/svg+xml</dc:format>
        <dc:type
           rdf:resource="http://purl.org/dc/dcmitype/StillImage" />
        <dc:title />
      </cc:Work>
    </rdf:RDF>
  </metadata>
  <g
     inkscape:label="Ebene 1"
     inkscape:groupmode="layer"
     id="layer1"
     transform="translate(-61.242564,-174.68348)">
    <path
       style="fill:#c8b7b7;stroke:#000000;stroke-width:1.14515901;stroke-opacity:1"
       d="M 357.0625 0.5625 L 302.15625 94.375 L 283.5 31.9375 L 259.625 114.1875 L 179.84375 13.21875 L 190.375 122.125 L 135.90625 80.53125 L 165.1875 161.84375 L 43.65625 127.96875 L 114.6875 208.25 L 45.03125 206.59375 L 118.78125 256.71875 L 0.5625 301 L 101.75 323.21875 L 45.625 362 L 137.90625 359.09375 L 67 466.21875 L 159.125 425.75 L 137.46875 487.375 L 212.1875 429.4375 L 217.59375 560.5 L 267.59375 475.09375 L 285.4375 534.84375 L 312.0625 443.15625 L 394.84375 547.84375 L 385.34375 449.8125 L 433.03125 486.25 L 400.84375 396.8125 L 531 433.09375 L 465.25 358.78125 L 523.90625 360.1875 L 446.75 307.75 L 574.09375 260.0625 L 474.84375 238.25 L 523.3125 204.78125 L 433.03125 207.625 L 507.65625 94.84375 L 411.1875 137.21875 L 431.5 79.40625 L 362.53125 132.9375 L 357.0625 0.5625 z "
       id="path3007-6"
       transform="translate(61.242564,174.68348)" />
    <path
       sodipodi:type="arc"
       style="fill:#c8b7b7;stroke:#000000;stroke-opacity:1"
       id="path2985"
       sodipodi:cx="344.28571"
       sodipodi:cy="455.21933"
       sodipodi:rx="164.28572"
       sodipodi:ry="165.71428"
       d="m 508.57143,455.21933 a 164.28572,165.71428 0 1 1 -328.57145,0 164.28572,165.71428 0 1 1 328.57145,0 z" />
  </g>
</svg>
